<?xml version="1.0" encoding="utf-8"?>
<!-- Generator: Adobe Illustrator 16.0.0, SVG Export Plug-In . SVG Version: 6.00 Build 0)  -->
<!DOCTYPE svg PUBLIC "-//W3C//DTD SVG 1.1//EN" "http://www.w3.org/Graphics/SVG/1.1/DTD/svg11.dtd">
<svg version="1.1" xmlns="http://www.w3.org/2000/svg" xmlns:xlink="http://www.w3.org/1999/xlink" x="0px" y="0px" width="500px"
	 height="500px" viewBox="0 0 500 500" enable-background="new 0 0 500 500" xml:space="preserve" preserveAspectRatio="none">
<g id="Layer_1" display="none">
	<g display="inline">
		<path fill="#FFFFFF" d="M451.422,248.797c0,31.469-7.756,62.443-21.256,90.203c-13.381,27.51-32.766,51.388-56.666,69.667
			c-34.98,26.781-80.85,42.142-129.188,42.142c-19.56,0-34.32-1.789-50.94-6.17l3.83-14.51c15.28,4.041,28.93,5.68,47.11,5.68
			c19.63,0,39.945-1.939,58.005-6.908L289,384.25l4.82-1.359l13.296,44.609c21.551-6.5,40.253-17.722,57.274-30.743
			c22.049-16.869,39.924-38.896,52.285-64.315c12.51-25.73,19.746-54.436,19.746-83.645c0-35.38-9.367-69.082-28.027-98.982
			c-18.27-29.29-43.305-53.57-73.895-68.94C309.369,68.255,279.002,60,245.333,60c-13.75,0-26.273,2.574-37.583,4.584l13.583,44.833
			l-4.81,1.36L202.82,65.533c-12.5,2.62-20.813,5.904-32.903,11.634L158.302,65.75C184.512,53.34,212.124,45,245.333,45
			c36.03,0,68.667,8.795,95.907,22.475c33.039,16.6,60.154,42.771,79.885,74.4C441.275,174.165,451.422,210.607,451.422,248.797z"/>
	</g>
</g>
<g id="Layer_2" display="none">
	<g display="inline">
		<g>
			<path fill="#FFFFFF" d="M248.67,90.91l-145.05,73.84l2.05,164.02l138.58,83.61l139.08-82.49l6.479-141.37L248.67,90.91z
				 M254.945,401.187l36.725-60.106l77.771-8.19L254.945,401.187z M379.46,323.77L346,290.75l-5.62-0.101l36.311,36.49L294.84,335
				l20.04-43.88l-5.547,0.213L289.4,334.83l-43.851-43.11l-3.43,1.4l44.939,46.488l-40.929,65.317l-2.797,1.771l-37.5-115.146
				l-3.667,6.391l33.49,103.728l-126.568-75.922l29.412-34.067l-5.17,0.166l-22.95,25.036l-2.26-146.631l54.93,46.519l4.7,0.229
				l-57.2-51.661l133.59-67.67l-53.26,118.58l4.5,0.13l53.06-117.37l49.31,117.37l4.37,0.12L254.069,99.63l129.541,90.01l0.409,0.28
				L361.62,218l3,3l20.255-23.125L379.46,323.77z"/>
		</g>
	</g>
</g>
<g id="Layer_4" display="none">
</g>
<g id="Layer_3">
	<g opacity="0.8">
		<polygon fill="#FFFFFF" points="139,253.24 139,254.15 138.55,253.64 		"/>
	</g>
	<g>
		<polygon fill="#FFFFFF" points="139,253.24 139,254.15 138.55,253.64 		"/>
	</g>
	<g>
		<g>
			<path fill="#FFFFFF" d="M149.81,250.458L174.375,222h-10.75L139,248.25V221h-11v66h11v-24.802l5.125-4.573L169.188,287h11.438
				L149.81,250.458z"/>
		</g>
		<g>
			<polygon fill="#FFFFFF" points="201.279,286.929 188.259,221.672 197.875,221.625 205.158,262.32 219.547,232.599 
				234.417,261.334 240.417,222 251.25,222 238.625,286.772 219.534,251.513 			"/>
		</g>
		<g>
			<polygon fill="#FFFFFF" points="277,231 277,250 307,250 307,259 277,259 277,278 310,278 310,287 266,287 266,222 310,222 
				310,231 			"/>
		</g>
		<g>
			<path fill="#FFFFFF" d="M359.173,286h-34.193l0.265-63.923L357.375,222c0,0,12.792,6.125,12.792,19.125
				c0,4.375-2.796,9.297-5.807,12.156c4.345,3.034,8.89,6.094,8.89,14.932C373.25,278.5,359.173,286,359.173,286z M335.021,278
				h20.739c0,0,6.865-2.19,6.865-9.375c0-10.69-8.557-10.625-8.557-10.625h-18.975L335.021,278z M335.135,249h18.195
				c0,0,6.837-0.938,6.837-7.812c0-7.312-5.667-10.188-5.667-10.188h-19.375L335.135,249z"/>
		</g>
	</g>
	<g>
	</g>
	<g>
	</g>
	<g>
	</g>
	<g>
	</g>
	<g>
	</g>
	<g>
	</g>
	<g>
	</g>
	<g>
	</g>
	<g>
	</g>
	<g>
	</g>
	<g>
	</g>
	<g>
	</g>
	<g>
	</g>
	<g>
	</g>
	<g>
	</g>
</g>
</svg>
